<?xml version="1.0" encoding="iso-8859-1"?>
<!-- Uploaded to: SVG Repo, www.svgrepo.com, Generator: SVG Repo Mixer Tools -->
<!DOCTYPE svg PUBLIC "-//W3C//DTD SVG 1.1//EN" "http://www.w3.org/Graphics/SVG/1.1/DTD/svg11.dtd">
<svg fill="#000000" height="800px" width="800px" version="1.1" id="Capa_1" xmlns="http://www.w3.org/2000/svg" xmlns:xlink="http://www.w3.org/1999/xlink" 
	 viewBox="0 0 482.477 482.477" xml:space="preserve">
<g>
	<path d="M276.67,227.298c36.184-14.557,59.564-49.159,59.564-88.154V65.498h18.248c5.247,0,9.5-4.253,9.5-9.5V9.5
		c0-5.247-4.253-9.5-9.5-9.5H127.994c-5.247,0-9.5,4.253-9.5,9.5v46.498c0,5.247,4.253,9.5,9.5,9.5h18.25v73.647
		c0,38.995,23.38,73.597,59.569,88.156c5.723,2.298,9.421,7.767,9.421,13.934c0,3.01-0.893,5.922-2.577,8.414
		c-1.688,2.494-4.058,4.407-6.85,5.532c-36.184,14.557-59.563,49.159-59.563,88.154v73.644h-18.25c-5.247,0-9.5,4.253-9.5,9.5
		v46.498c0,5.247,4.253,9.5,9.5,9.5h226.488c5.247,0,9.5-4.253,9.5-9.5v-46.498c0-5.247-4.253-9.5-9.5-9.5h-18.248v-73.644
		c0-38.995-23.381-73.597-59.566-88.154c-5.73-2.305-9.434-7.779-9.434-13.946c0-3.011,0.89-5.916,2.584-8.416
		C271.495,230.336,273.863,228.427,276.67,227.298z M137.494,19h207.488v27.498H137.494V19z M344.982,463.477H137.494v-27.498
		h207.488V463.477z M254.08,222.175c-3.824,5.643-5.846,12.233-5.846,19.06c0,13.966,8.379,26.359,21.344,31.573
		c28.95,11.646,47.656,39.33,47.656,70.527v73.644h-151.99v-73.644c0-31.197,18.706-58.88,47.66-70.529
		c6.316-2.545,11.672-6.87,15.491-12.513c3.82-5.652,5.839-12.243,5.839-19.059c0-13.97-8.377-26.361-21.335-31.563
		c-28.949-11.646-47.655-39.33-47.655-70.527V65.498h151.99v73.647c0,31.197-18.706,58.88-47.655,70.526
		C263.24,212.22,257.878,216.549,254.08,222.175z"/>
	<path d="M241.238,269.888c-5.247,0-9.5,4.253-9.5,9.5v4.776c-13.068,1.569-23.232,12.716-23.232,26.2v12.672
		c0,13.484,10.165,24.631,23.232,26.2v26.941c-2.498-1.188-4.232-3.73-4.232-6.676c0-5.247-4.253-9.5-9.5-9.5s-9.5,4.253-9.5,9.5
		c0,13.484,10.165,24.632,23.232,26.2v4.777c0,5.247,4.253,9.5,9.5,9.5s9.5-4.253,9.5-9.5v-4.777
		c13.068-1.569,23.232-12.716,23.232-26.2V356.83c0-13.484-10.165-24.631-23.232-26.2v-26.94c2.498,1.188,4.232,3.73,4.232,6.675
		v7.041c0,5.247,4.253,9.5,9.5,9.5s9.5-4.253,9.5-9.5v-7.041c0-13.484-10.165-24.631-23.232-26.2v-4.776
		C250.738,274.142,246.485,269.888,241.238,269.888z M227.506,323.037v-12.672c0-2.945,1.735-5.487,4.232-6.675v26.023
		C229.241,328.524,227.506,325.982,227.506,323.037z M254.971,356.83v12.672c0,2.945-1.735,5.487-4.232,6.675v-26.023
		C253.236,351.343,254.971,353.885,254.971,356.83z"/>
	<path d="M311.145,123.138c-1.384-5.062-6.61-8.039-11.67-6.656c-38.098,10.422-78.375,10.422-116.473,0
		c-5.055-1.384-10.286,1.596-11.67,6.656c-1.385,5.061,1.596,10.286,6.656,11.67c20.689,5.66,41.97,8.49,63.25,8.49
		s42.561-2.83,63.25-8.49C309.549,133.424,312.529,128.199,311.145,123.138z"/>
</g>
</svg>